<svg xmlns="http://www.w3.org/2000/svg" version="1.0" viewBox="0 0 842 152"><path stroke="#000" stroke-width="2.3" d="M165.5 17.5c.3 3.3 1 13.6 1.6 23 .6 9.3 1.2 17.2 1.4 17.4.2.1.9 0 1.5-.4.8-.5.8-1 .2-1.4-.5-.3-1.5-9.6-2.2-20.6s-1.6-20.9-2.1-22c-.5-1.2-.7.3-.4 4zM496 40.3c0 2.6 6.1 19 7.9 21 .8 1 3 2.5 4.7 3.2 2.3.9 3.6 2.4 4.7 5.6.9 2.4 5.5 15.4 10.2 28.9 4.8 13.5 9.3 25.3 10.2 26.2 1.2 1.4 3.2 1.8 7.7 1.8 5.2 0 6.9-.5 12-3.7 6.4-3.9 8.5-3.8 9.7.8.5 1.6.7.6.8-3.2.1-3.1-.2-5.8-.5-6.2-.3-.3-3.6 1.7-7.3 4.4-6.6 4.8-6.9 4.9-13.8 4.9-4.4 0-7.4-.5-8.1-1.3-.5-.6-5.4-13.8-10.7-29.2-13-37.3-11.6-34.3-16.1-34.7l-3.7-.3-3.4-9.5c-3.6-9.9-4.3-11.4-4.3-8.7zm-44.1 30.2C441.4 84.1 440.2 86 441.7 86c.9 0 18.2-22.1 20.2-25.8 3.1-5.8-.4-2.2-10 10.3zM823 77c-5.3 3.8-5.8 3.9-13.7 4h-8.2l-.6 5.3c-.4 2.9-.5 6.6-.2 8.2.2 1.8.5.7.6-2.6l.1-5.7 5.4-.4c5.6-.5 13.2-4.3 19.9-10 4.5-3.9 3.1-3.3-3.3 1.2zm-137.5 9.3c-.4 2.9-.5 6.6-.2 8.2.2 1.7.5.6.6-2.8l.1-5.7h4.3c6.5 0 7.4 1.6 7.9 14 .4 11.2 2.1 16.2 7 20.7 5.1 4.8 9.1 5.3 38.2 5.2 30.1-.1 49-1.8 51.5-4.5 1.5-1.5 1.2-1.6-3.4-.9-5.9.9-35.6 1.9-57.5 2-16.8 0-20.8-.8-26.1-5.2-5.8-4.9-7.3-9.4-7.7-23.6l-.4-12.7h-13.7zM313.4 112c-4.6 4.5-31.9 11-46.4 11-5.9.1-6.3.2-4.6 1.5 3 2.2 14.3 1.9 28.8-.9 7-1.4 14.8-3.4 17.4-4.5 6.3-2.8 7.9-2.7 12.5 1.2 5.6 4.8 9.7 5.7 26.9 5.7 14.8 0 15.3.1 18.2 2.5 2.9 2.5 3.2 2.5 21.7 2.5 17.3 0 19-.2 21.4-2 3.2-2.5 4.8-2.5 8 0 2.3 1.8 4 2 21.5 2 16.7 0 19.1-.2 20.5-1.8 1.5-1.6.5-1.7-19.3-1.4l-20.8.3-3-3.6-3-3.7-2.7 3.6-2.8 3.6-21.1-.2-21.1-.3-.3-2.5-.3-2.5h-17.2c-20.1 0-24.5-1.1-30-7.6-2-2.3-3.7-3.5-4.3-2.9zM68 119.1c-6.1 4.5-6.9 4.9-12.4 4.9-5.1 0-5.7.2-4.6 1.5.9 1 3.1 1.5 7.2 1.5 6.1 0 9.7-1.3 15.4-5.6 1.7-1.3 4.1-2.4 5.4-2.4h2.3l-2.3-2.5c-1.3-1.4-2.8-2.5-3.4-2.4-.6 0-4 2.3-7.6 5zm185.6-2.5c-7.4 4.1-14.2 5.6-26.8 6.1l-12.7.6-.3 7.6-.3 7.6-8 .3-8 .2-11.7-8.5c-6.5-4.7-12-8.5-12.2-8.5-.3 0-.6 3-.8 6.7l-.3 6.8-18.4.3c-16 .2-18.2.4-17.1 1.7 1 1.2 4.4 1.5 17.9 1.5 9.1 0 17.1-.4 17.7-.8s1.4-2.5 1.7-4.6c1.2-7.7 3.3-7.4 16.9 2.3 7 5 9.6 6.3 13.7 6.8 7.4.8 10.1-1.2 10.1-7.5 0-8 .9-8.5 15.1-9.3 9.2-.4 13.9-1.2 18.4-2.8 3.3-1.3 6.9-2.4 8-2.4 1.7-.2 2-.8 1.7-3-.5-3.1-.7-3.2-4.6-1.1zm-129.7 2.1c-2.5 1.3-7.5 2.8-11 3.4-7.8 1.3-22.6.5-27.7-1.6l-3.7-1.5 2.5 2c4.7 3.8 12.2 5.2 24.9 4.8 9.4-.3 12.6-.8 16.9-2.7 4.2-1.9 5.2-2.8 5.2-4.7 0-2.9-1.1-2.8-7.1.3zm512.6 1.2c-5.3 2.2-7.6 2.5-18.7 2.5-12.1.1-12.8.2-12.8 2.1s.5 2 12.7 1.4c8.8-.4 14-1.1 16.6-2.3 3.7-1.6 4-1.6 7.8.3 4.8 2.5 10.9 2.7 26.3.6 7.4-1 11.5-2 12.5-3.1 1.5-1.5 1.2-1.6-3.4-1-2.7.3-11.4.9-19.1 1.3l-14.1.6-.9-2.4-.9-2.5zm-72.4 13.8c-.1 1.2.7 2.9 1.6 3.9 1.5 1.5 3.6 1.6 17.5 1.2 13.3-.4 16.2-.7 17.6-2.2 1.6-1.6.7-1.7-16.5-1l-18.3.7-.9-2.4c-.9-2.3-1-2.3-1-.2z"/><g fill="#004080" stroke="#004080" stroke-width="2.3"><path d="m136 10.8-13.5 5.7-1.2 4.5c-.6 2.5-1.2 8.2-1.2 12.8-.1 5.7-.5 8.4-1.3 8.7-.7.2-6.3.5-12.5.7l-11.2.3.6-6.1c.9-9.8-.3-14.9-4.5-19.6-5.4-6-10.2-7.7-22.9-8.4-16.6-1-30.1 1.2-52.3 8.1l-8 2.6v7.8c0 6.5.6 9.6 3.5 17.6 4.8 13.3 5 13.5 8.9 13.5h3.4l4 11.3c2.2 6.1 7.2 20.5 11.2 32l7.3 20.7H62l7-5.1 7-5.1 3.2 3.1c5.1 5 11 6.4 25.7 5.9 12.1-.3 13.1-.5 19.1-3.6 3.5-1.8 6.4-3.1 6.6-2.9.1.1.6 4.3 1 9.2.3 5 1.1 9.6 1.7 10.2 1.4 1.9 37 1.8 38.5 0 .6-.7 1.2-4 1.4-7.4l.3-6.2 12.5 9 12.4 9 7.1-.3 7-.3.3-7.6.3-7.6 11.7-.6c13-.7 20.8-2.4 28.2-6.2l5-2.5.6 2.7c.3 1.6.7 3.4 1 4.1 1.2 3.9 38.7-1.2 49.2-6.8l5.8-3.1 4.5 4.5c2.9 2.9 6 4.8 8.9 5.6 4.6 1.3 23.5 1.9 32.5 1 4.7-.4 5-.3 5.4 2 .1 1.4.8 2.8 1.5 3.2.6.4 9.6.8 20 .8h18.9l3.4-3.7 3.5-3.6 3.3 3.6 3.4 3.7h19.3c13.8 0 19.7-.3 20.6-1.2.7-.7 1.2-4 1.2-7.7v-6.5l-10-13.1c-5.5-7.2-10-13.7-10-14.4s5.2-8 11.5-16.2L464 54.1V38.8l-21.6.4-21.6.3-1.9 2.7c-1.1 1.4-2.8 3.7-3.9 5l-1.9 2.3-1.6-2.3c-.9-1.3-2.7-3.5-4-5l-2.3-2.7h-42.7l-.3 2.6c-.3 2.6-.5 2.6-10.2 3.3-5.5.3-12 1.3-14.6 2.2-2.5.8-4.7 1.4-4.9 1.2s-1.1-3.9-2-8.3-3.2-11.2-5.1-15.2C320 13.9 314 10.6 297.3 9.5c-12.8-.9-28 .8-42.2 4.6-16.6 4.4-15.5 3.2-14.7 15.3.3 5.5.8 11.4 1.2 13.1l.5 3-12.8.1c-14.1.2-19.4 1.4-27.4 6.5-4.4 2.8-5.1 2.9-15.9 2.9-9.6 0-11.8.3-14.5 2l-3.3 2.1-.6-2.8c-.2-1.5-1-12.7-1.7-24.8s-1.6-23-2-24.3c-.8-2-1.5-2.2-7.6-2.2-6 0-8.4.7-20.3 5.8zm23.1 31.8c1.1 16.4 2.1 30 2.4 30.2.2.2 5-2.2 10.7-5.3l10.3-5.8 9.6 1.3 9.6 1.2 5.1-3.7c8.3-5.9 15-7.8 26.3-7.3 8.3.3 10.5.8 15.5 3.4 3.5 1.7 5.9 3.6 5.9 4.6 0 .9-6 8.7-13.4 17.4-10 11.9-13 16-11.7 16.2 2.5.5 9.2-4.2 12.5-8.9l3-4 6.3 7.6c3.5 4.3 6.4 8.3 6.6 9 1 4.1-13.4 13.2-24.5 15.5-5.9 1.3-23.4.9-26.6-.5-1.7-.7-1.8-.2-1.1 9.1l.7 9.8-2.9-1.9c-1.6-1-10.9-7.7-20.7-14.8-9.9-7-18-12.7-18.2-12.5-.1.2 0 5.8.4 12.6l.6 12.2h-26.3l-.6-13.7c-.4-7.6-.9-16.2-1.2-19.1l-.6-5.4-2 4.1c-2.9 6-11.8 14.4-18.5 17.7-4.8 2.4-7.1 2.9-13.3 2.9-12.8 0-21-6-24.5-17.9-2-6.6-1.9-18.1.2-24.2s10.6-15 18.4-19c4.8-2.5 6.4-2.9 14.4-2.9 8.1 0 9.5.3 14.5 3 3 1.6 6.4 4.5 7.6 6.3l2.2 3.2-.5-12.2c-.2-6.8-.6-12.8-.8-13.5q-.45-1.2-3.9-.6c-4.1.6-4.2.5-2.5-7.8l1.1-5.4 13.6-5.7c7.5-3.1 13.8-5.5 14-5.3s1.3 13.7 2.3 30.1zM77.7 19.5C83.9 22.6 88 28.1 88 33.3c0 7.1-5 14.6-19.8 29.8l-9.3 9.6 4.5 16.2c2.5 8.9 4.6 16.5 4.6 16.9 0 1-12.6 10.2-13.9 10.2-.4 0-6.1-15.2-12.6-33.8C35 63.7 29.6 48.3 29.4 48.1c-.2-.3-1.5.6-2.9 1.9s-2.7 2.2-2.9 1.9C23.1 51.3 15 29 15 28c0-1.1 9.7-4.3 24.1-8 9.1-2.3 13.6-2.9 22.5-3 9.8 0 11.5.3 16.1 2.5zm226.4-1c6.8 2.4 10.8 6.2 14.1 13.1 4.2 8.9 5.7 15.4 6.4 26.4l.6 9.5 4.3-4.1c2.3-2.3 6.9-5.4 10.1-7 5.5-2.7 6.8-2.9 17.4-2.9 9.7 0 12.2.3 16.2 2.2l4.7 2.1-4.4-5.6-4.5-5.7 6.7-.3c3.8-.2 10.5 0 15.1.3l8.2.7 7.2 9.3 7.1 9.4 6.9-9.2c6.9-9.2 6.9-9.2 12.1-9.9 6.7-.8 24.7-1 24.7-.2 0 .5-17.3 23.3-26.4 34.6l-2.9 3.8 12.3 16.2c6.8 9 12.7 16.9 13.3 17.5.7 1-2.1 1.3-13.5 1.3h-14.4l-6.1-8-6-7.9-6.2 7.9-6.2 8H387c-7.7 0-14-.3-14-.6s5.8-8.2 12.9-17.4l13-16.9-8.6-11.1c-4.7-6-8.9-11-9.3-11s-6.7 7.1-14 15.7c-10 11.9-12.9 15.9-11.6 16.1 2.5.5 9.2-4.2 12.5-8.9l3-4 6.3 7.6c3.5 4.3 6.4 8.3 6.6 9 1 4.1-13.4 13.2-24.5 15.5-3.1.7-10 1-15.3.8-8.2-.3-10.2-.7-14.2-3.1-6-3.5-9.8-10.7-9.8-18.5v-5.4l-4.1 6.1c-7.8 11.8-14.2 15.2-34.6 18.8-7.9 1.4-14.5 2.4-14.7 2.2-.3-.3-7.6-64.9-7.6-67.3 0-.4-1.1.6-2.4 2.1-1.6 1.8-2.8 2.5-3.4 1.8-.8-.8-6.2-23.1-6.2-25.6 0-.7 18-5.9 27-7.7 7.5-1.6 25.2-1.4 30.1.3z"/><path d="M107.9 63.3c-6.5 4.3-9.4 11.1-6.9 15.8 1.3 2.2 8 5.9 11 5.9 6.7 0 13.2-9.3 12.1-17.3-.1-.4-1.5.8-3.2 2.8-4.7 5.3-10.9 4.6-10.9-1.3 0-2.6 1.7-6.3 3.4-7.4.7-.5.5-.8-.5-.8-.9 0-3.1 1-5 2.3zm112.5 7.3c-3.6 1.2-4.3 1.9-6.5 5.7-1.2 2.1-1.4 10-.4 11.7.6.9 11.9-11.7 14.5-16.1 1.3-2.3-2.7-3-7.6-1.3zm-31.5 8.8c-3.6 2.9-7.9 6.1-9.4 7.3l-2.8 2 8.4 6.3c4.6 3.5 9 6.8 9.7 7.3 1 .8 1.1.4.2-1.7-1.5-3.9-1.2-16.5.4-21.9.8-2.6 1.1-4.7.8-4.7-.4.1-3.7 2.5-7.3 5.4zM57.1 40.2c-6.7 1.1-7.1 1.9-5.4 8.6 2.4 9.1 2.4 9.1 8.6 1.6 3.2-3.8 5.7-7.6 5.7-8.5 0-2.1-3.2-2.7-8.9-1.7zM284 40c-1.2.7-1.2 4-.2 24.1.6 12.8 1.4 23.4 1.6 23.7 1.1 1.1 9.9-5.2 12.2-8.7 3.1-4.8 4.6-17 3.3-27.3-1-8.1-2.2-10.6-5.5-11.8-3.2-1.3-9.5-1.3-11.4 0zm62.4 30.6c-3.6 1.2-4.3 1.9-6.5 5.7-1.2 2.1-1.4 10-.4 11.7.6.9 11.9-11.7 14.5-16.1 1.3-2.3-2.7-3-7.6-1.3zM576 7.6c-5.1 2.2-6.3 2.3-18 1.8-18.6-.9-31.4 1-54 8.1l-8 2.6v7.8c0 6.5.6 9.6 3.5 17.6 4.8 13.3 5 13.5 8.9 13.5h3.4l4 11.2c2.2 6.2 7.2 20.6 11.2 32.1l7.3 20.7h7.8c7.8 0 8-.1 14.4-4.7 4.1-3 6.6-5.4 6.6-6.7.1-1.2.7 3.5 1.3 10.4l1.1 12.5 14.2.3c7.8.1 16.4-.1 19-.5l4.8-.8.3-5.7.3-5.6 14.2-.4c12.9-.3 14.7-.5 19.4-2.9l5.2-2.6 1 2.9c1 2.7 1.2 2.8 7.8 2.8 7 0 30.9-2.6 32.4-3.6.5-.3.9-8.3.9-17.7 0-9.5.4-17.8.9-18.5.5-.9 2.8-1.2 7.4-1l6.7.3.3 11.5c.3 8.9.8 12.5 2.4 16 2.5 5.6 8 10.5 13.5 12.2 5.3 1.5 31.5 1.5 37.8 0 2.8-.7 4.9-.7 5.4-.1.6.5 4 .9 7.6.9 6.8 0 30.6-2.7 32.1-3.6.5-.3.9-8.1.9-17.4 0-9.2.3-17.5.6-18.4.5-1.3 2.2-1.6 7.8-1.6 7 0 7.4-.1 16.2-5.7 4.9-3.1 9.2-6.1 9.6-6.7s.8-4.5.8-8.6c0-10.8-3.2-15.5-14-21-4.3-2.2-4.9-2.2-26-1.6-22.2.7-35.6 2-37.7 3.8-.7.6-1.3 1.8-1.3 2.7 0 1.4-1.7 1.6-12.8 1.7-10 .1-13.9.6-18.3 2.1l-5.6 2.1-3.7-3.9c-2-2.1-5.9-5-8.8-6.5l-5.2-2.6-21.6.6c-25.2.8-36.5 2.1-38.3 4.5-1 1.4-3.5 1.6-16.2 1.6-14.5 0-15.2.1-19.9 2.8-2.7 1.5-5.1 2.6-5.3 2.4s-.8-9.1-1.5-19.8c-.6-10.7-1.5-20.4-1.9-21.7-.8-2-1.5-2.2-8.1-2.1-5.4.1-8.8.7-12.8 2.5zm14.4 9.6c.3 2.9 1 14.1 1.6 24.8s1.3 21.4 1.6 23.8l.5 4.3 2.9-3.9c3.4-4.7 9.9-10.1 16-13.3 3.8-2 6-2.4 13.5-2.4 9.5 0 14.8 1.8 20.3 6.8l2.2 2v-12l8.8-1.2c11.6-1.5 12.9-1.4 14 .5.8 1.5 1.4 1.5 6.3-.2 3.2-1.1 8.3-1.9 12.5-1.9 6.5 0 7.5.3 12.7 3.7 5.1 3.4 9.7 9.4 9.7 12.7 0 1.5-19.4 13.5-19.8 12.2-.2-.6-1.5-2.5-2.9-4.1-4.2-5.1-9.1-3.3-11.4 4.1-.6 1.9-1 11.3-1 21.1.1 16.2-.1 17.8-1.7 17.8-.9.1-6.9.7-13.2 1.5-6.3.7-11.6 1.2-11.7 1.1s-.7-4.3-1.4-9.4l-1.2-9.2-3.4 4.4c-6.5 8.3-18.2 14.6-27.3 14.6-6.8 0-13.8-2.8-18.2-7.3l-4-4.2.7 11.6.7 11.6-6.2.6c-3.5.4-9.2.7-12.6.7H572v-3.3c-.1-6.6-3.8-72.8-4.1-73.1-.2-.1-5 4.6-10.7 10.5l-10.3 10.7 4.5 16.1c2.6 8.9 4.6 16.5 4.6 16.9 0 1-12.6 10.2-13.9 10.2-.4 0-6.1-15.2-12.6-33.8-6.5-18.5-11.9-33.9-12.1-34.1-.2-.3-1.5.6-2.9 1.9s-2.7 2.2-2.9 1.9c-.6-.6-8.6-23-8.6-23.9 0-1.1 13-5.3 26.5-8.6 12.7-3.1 28.8-3.3 35-.5l4 1.8 10-4.3c5.5-2.3 10.3-4.3 10.7-4.3.4-.1.9 2.3 1.2 5.1zm228.2 31.2c4.8 3.2 9.4 9.3 9.4 12.5 0 1.5-19.4 13.5-19.8 12.2-.2-.6-1.5-2.5-2.9-4.1-4.2-5.1-9.1-3.3-11.4 4.1-.6 1.9-1 11.3-1 21.1 0 13.7-.2 17.8-1.2 17.8-1.3 0-15.8 1.6-21.8 2.5-3.6.5-3.7.4-4.3-3.5l-.6-3.9-6.2 2.9c-8.5 4-15.5 5.3-26.8 4.8-12.5-.5-17.5-3.1-21.5-11.3-2.5-5.1-2.7-6.2-2.3-14.8.9-16.7 6.5-26 19.4-32.3 8-3.8 22-4.6 30.7-1.7l5.7 2v-9.4l8.8-1.2c11.6-1.5 12.9-1.4 14 .5.8 1.5 1.3 1.5 5.8.1 7.7-2.5 8.6-2.6 14.7-2.2 4.7.3 6.9 1 11.3 3.9zM562 76.7c0 2.1.3 6.9.6 10.8.4 3.8.3 6.7-.1 6.3s-1.8-4.4-3.1-8.9c-2.2-7.7-2.3-8.4-.7-10.1 2.4-2.7 3.3-2.2 3.3 1.9z"/><path d="M545.1 40.2c-6.7 1.1-7.1 1.9-5.4 8.6 2.4 9.1 2.4 9.1 8.6 1.6 3.2-3.8 5.7-7.6 5.7-8.5 0-2.1-3.2-2.7-8.9-1.7zm77.8 23.1c-6.5 4.3-9.4 11.1-6.9 15.8 1.3 2.2 8 5.9 11 5.9 6.7 0 13.2-9.3 12.1-17.3-.1-.4-1.5.8-3.2 2.8-4.7 5.3-10.9 4.6-10.9-1.3 0-2.6 1.7-6.3 3.4-7.4.7-.5.5-.8-.5-.8-.9 0-3.1 1-5 2.3zm111.5 7.3c-3.6 1.2-4.3 1.9-6.5 5.7-1.2 2.1-1.4 10-.4 11.7.6.9 11.9-11.7 14.5-16.1 1.3-2.3-2.7-3-7.6-1.3zm18.1 11.1c-8.2 9.7-10.4 12.9-9.1 13.1 2.5.5 9.1-4.2 12.4-8.8l2.9-3.9 2.6 2.7 2.7 2.7v-9.3c0-5-.2-9.2-.4-9.2s-5.2 5.7-11.1 12.7z"/></g><g fill="#FFBF00" stroke="#FFBF00" stroke-width="2.3"><path d="m578.5 17.5-10 4.2-4.5-2.1c-5.4-2.3-19.9-2.7-29.5-.7-7.7 1.7-28.8 8-29.8 9-.4.4.8 5 2.7 10.2 5.4 14.8 4.6 13.7 7.2 10.3 1.3-1.5 2.5-2.6 2.8-2.3s5.8 15.6 12.2 34c6.4 18.3 12 33.7 12.3 34.1.8.9 13-7.3 13.1-8.7 0-.6-2-8.2-4.6-16.9l-4.5-15.9 8.8-9.1c4.9-5 10.1-10.7 11.6-12.6 2.2-2.9 2.7-3.1 2.7-1.5 0 1.1.9 18.4 2 38.5s2 37.1 2 37.7c0 1.4 12.3 1.8 19.4.6l3.8-.6-.7-13.1c-.6-12.6-.6-13 1.1-10.6 6.2 9 13.4 12.6 23.4 11.7 3.2-.3 7.8-1.4 10.3-2.5 5.3-2.4 13.7-9.8 16.9-15.1l2.3-3.6 1.1 10.3c.6 5.6 1.3 10.4 1.5 10.6s5.6-.2 11.9-.9c6.3-.8 11.8-1.4 12.2-1.5.3 0 .8-8.4 1-18.7.3-16.8.5-19.2 2.4-22.8 3.2-6.1 8.6-6.1 12.4 0l2.1 3.4 8.7-5.7c4.8-3.1 8.9-5.7 9.1-5.9.9-.6-2.3-6.3-5.2-9.1-7.8-7.4-15.3-8.8-27.2-5.1-6.3 1.9-6.8 1.9-8.6.3-1.9-1.7-5.7-1.6-18.1.3l-3.8.6v13l-2.4-2.6c-4.9-5.2-10.3-7.2-20.1-7.2-8.1 0-9.5.3-14.3 2.9-7 3.9-14.8 11.6-17.2 16.8l-1.9 4.3-.1-3.5c-.4-11.4-3.6-58-4-58.3-.3-.3-5 1.4-10.5 3.8zM555 41.3c0 2.3-10.3 15.6-12.6 16.4-.6.2-1.9-2.6-2.9-6.4-1-3.7-2-7.4-2.3-8.1-.7-1.9 5.7-4.1 12.1-4.2 5.3 0 5.7.2 5.7 2.3zM628.9 63c-2.4 2.3-3 3.7-2.7 6.2.3 2.9.7 3.3 3.4 3.6 3.1.3 5.4-1.6 9.1-7.4 1-1.6 1.2-1.1 1.2 3.6.1 6.9-3 12.7-8.1 15.4-3.1 1.8-4.1 1.8-7.7.8-6.6-2-9.6-5.2-9.6-10.4 0-2.9.8-5.3 2.2-7.4 2.5-3.4 9.4-7.4 13-7.4 2 0 2 .2-.8 3zM141.8 19.2l-11.7 5.1-1 4.9c-1.6 7-1.5 7.1 2.3 6.4l3.4-.7.6 5.3c.3 2.9.8 10.5 1.1 16.8l.6 11.5-2.8-5.4c-2.2-4.3-3.9-6-8.3-8.5-5-2.8-6.3-3.1-14.5-3.1-8.1 0-9.5.3-14.4 3C89 59 81.6 66.8 79.4 73.2c-5.4 16.2 1.6 35 14.8 39.4 10 3.3 21.6.3 30.3-7.7 6.4-5.9 10.1-11.6 11.8-18l1.4-5.4.6 14c.4 7.7 1 18.2 1.3 23.2l.7 9.3h24.5l-.4-5.8c-.2-3.1-.6-9.2-.8-13.5l-.5-7.8 2.7 1.7c1.5 1 10.7 7.5 20.4 14.6 9.8 7 18.1 12.8 18.4 12.8.4 0 .4-4.3 0-9.6-.7-9.2-.7-9.5 1.2-8.5 4 2.1 14.3 3.1 22 2 12.6-1.8 25.2-7.6 28.1-13.2 1.3-2.5 1.2-2.9-3.9-8.9-3-3.5-5.7-6.6-6-7.1-.4-.4-3.1 1.7-6.1 4.7-3.9 3.9-6.5 5.6-9.2 6.1-2.1.4-4 .5-4.3.2s5.8-8 13.6-17.2c16.1-19 16-18.5 5.1-22.6-12-4.5-27.5-2.2-38.2 5.7l-5 3.6-9.5-1.3-9.6-1.3-6.1 3.4c-12.6 7-15.6 8.5-16 8-.3-.3-1.3-13.8-2.4-30-1.5-24.5-2.1-29.5-3.3-29.7-.8-.1-6.8 2.1-13.2 4.9zM113.9 63c-2.4 2.3-3 3.7-2.7 6.2.3 2.9.7 3.3 3.4 3.6 3.1.3 5.4-1.6 9.1-7.4 1-1.6 1.2-1.1 1.2 3.6.1 6.9-3 12.7-8.1 15.4-3.1 1.8-4.1 1.8-7.7.8-6.6-2-9.6-5.2-9.6-10.4 0-2.9.8-5.3 2.2-7.4 2.5-3.4 9.4-7.4 13-7.4 2 0 2 .2-.8 3zm115.6 7c.3.6-3.1 5.6-7.6 11.1-9.1 11.1-9.7 11.2-9.8 1.6-.1-5.7 1.9-10.1 5.7-12.1 3.1-1.7 10.8-2.1 11.7-.6zM197 76.6c-2.9 8.3-2.9 21 0 26.3.5 1.1 1 2.2 1 2.6 0 .8-21.9-15.8-22-16.6 0-.6 21.9-17.9 22.6-17.9.2 0-.6 2.5-1.6 5.6zm-141.5-59c-11.1 1.5-36.8 8.3-38.8 10.3-.4.4.8 5 2.7 10.2 5.4 14.8 4.6 13.7 7.2 10.3 1.3-1.5 2.5-2.6 2.8-2.3s5.8 15.6 12.2 34c6.4 18.3 12 33.7 12.3 34.1.8.9 13-7.3 13.1-8.7 0-.6-2-8.2-4.5-16.9l-4.6-15.8 9.8-10.2C78.3 51.7 85.4 42 86.9 36.3c1.7-6.2-3-13.4-10.9-16.7-3.7-1.5-15.5-2.7-20.5-2zM67 41.3c0 2.3-10.3 15.6-12.6 16.4-.6.2-1.9-2.6-2.9-6.4-1-3.7-2-7.4-2.3-8.1-.7-1.9 5.7-4.1 12.1-4.2 5.3 0 5.7.2 5.7 2.3z"/><path d="M281.1 18.1c-7.1.8-29.5 6.3-32 7.8-.9.6-.7 3.1.9 10.7 1.1 5.4 2.5 11 3.1 12.3l1 2.5 2.4-3c1.3-1.6 2.5-2.7 2.8-2.4.2.3 2.1 15.5 4.1 33.9s3.8 33.6 4.1 33.9c1 1 28.7-4.8 33-6.9 6.2-3.1 13.3-10.6 17.1-17.9l3.2-6.1-.1 7.3c0 10.5 3.5 17.8 10.4 21.4 7.5 3.8 24.1 3.6 35.4-.7 7-2.6 13.7-7 15.4-10.2 1.3-2.5 1.2-2.9-3.9-8.9-3-3.5-5.7-6.6-6-7.1-.4-.4-3.1 1.7-6.1 4.7-3.9 3.9-6.5 5.6-9.2 6.1-2.1.4-4 .5-4.3.2s5.8-8 13.6-17.2c16.1-19 16-18.5 5.1-22.6-16.4-6.1-38.8.8-45.4 14l-2.4 4.9.5-9.2c.8-16.1-4.6-34.8-11.9-41.6-5.9-5.3-17-7.4-30.8-5.9zM298 40.5c2.9 2.7 4 7.8 4 19.5 0 12.4-1.1 16.9-5 21.4-2.9 3.2-11.4 8.5-12.4 7.6-.2-.3-1-11.3-1.7-24.4-1.2-23.1-1.2-23.9.7-25.3 2.6-2 11.7-1.2 14.4 1.2zM355.5 70c.3.6-3.1 5.6-7.6 11.1-9.1 11.1-9.7 11.2-9.8 1.6-.1-5.7 1.9-10.1 5.7-12.1 3.1-1.7 10.8-2.1 11.7-.6zm438.7-22.9c-6 1.9-6.5 1.9-8.3.3-1.9-1.7-5.7-1.6-18.1.3-3.8.6-3.8.6-3.8 5.3v4.8l-5.2-2c-14.6-5.6-36.8.4-43.9 11.8-6.1 9.9-8 25.8-4.2 34.4 3.9 8.8 10.9 12.3 24.3 12.3 8.6 0 17.8-2.2 25-5.8 2.7-1.4 5.1-2.5 5.3-2.5.3 0 .7 1.8 1.1 4.1.6 3.8.8 4 3.4 3.5 1.5-.2 5.4-.7 8.7-1.1 3.3-.3 7.7-.8 9.7-1.1l3.6-.5.4-18.7c.3-16.7.5-19.1 2.4-22.7 3.2-6.1 8.6-6.1 12.4 0l2.1 3.4 8.7-5.7c4.8-3.1 8.9-5.7 9.1-5.9.9-.6-2.3-6.3-5.2-9.1-7.8-7.4-15.7-8.8-27.5-5.1zm-30 41.9c-.2.3-1.4-.8-2.6-2.3l-2.2-2.8-5.5 5.5c-3.9 3.9-6.5 5.6-9.2 6.1-2.1.4-4 .5-4.3.2s4.8-6.8 11.3-14.5l11.8-14 .5 10.7c.3 5.8.3 10.8.2 11.1zm-20.7-19c.3.6-3.1 5.6-7.6 11.1-9.1 11.1-9.7 11.2-9.8 1.6-.1-5.7 1.9-10.1 5.7-12.1 3.1-1.7 10.8-2.1 11.7-.6z"/><path d="M373 50c1.5 1.9 8.2 10.6 14.9 19.3L400 85.1l-13 17c-7.1 9.3-13 17.2-13 17.4 0 .3 5.8.5 13 .5h12.9l6.1-7.9c3.3-4.4 6.4-8.2 6.9-8.5s3.7 3.2 7.2 7.9l6.4 8.5h13.4c10.5 0 13.1-.3 12.3-1.3-6.1-7.7-25.2-33.1-25.2-33.6 0-.3 6.5-9 14.5-19.4L455.9 47h-10.2c-16.9 0-16.8 0-24.4 9.9-3.7 4.7-7 9-7.4 9.4-.6.7-3.6-2.9-14.5-17.2-.9-1.1-4.5-1.6-15.2-2l-14-.6z"/></g></svg>